<svg width="828" height="890" viewBox="0 0 828 890" fill="none" xmlns="http://www.w3.org/2000/svg">
<path d="M639.008 625.916C644.62 623.416 661.659 623.416 684.921 643.416C708.184 663.416 750.73 709.749 769.095 730.416L805.826 771.916C812.117 785.916 823.681 815.416 819.6 821.416C814.498 828.916 794.092 870.916 792.052 866.416C790.011 861.916 761.953 884.416 755.831 881.416C750.934 879.016 728.624 880.416 718.081 881.416L689.002 866.416L562.487 734.916L555.345 719.916V706.916L565.547 693.916L538.51 672.416L550.753 658.916L602.788 607.416L605.339 604.916L639.008 625.916Z" fill="#68330D"/>
<path d="M639.008 625.916C644.62 623.416 661.659 623.416 684.921 643.416C708.184 663.416 750.73 709.749 769.095 730.416L805.826 771.916C812.117 785.916 823.681 815.416 819.6 821.416C814.498 828.916 794.092 870.916 792.052 866.416C790.011 861.916 761.953 884.416 755.831 881.416C750.934 879.016 728.624 880.416 718.081 881.416L689.002 866.416L562.487 734.916L555.345 719.916V706.916L565.547 693.916M639.008 625.916L565.547 693.916M639.008 625.916L605.339 604.916L602.788 607.416L550.753 658.916L538.51 672.416L565.547 693.916" stroke="#68330D" stroke-width="5"/>
<path d="M139.577 110.916L133.965 130.416L112.029 134.916C106.247 136.416 91.8272 140.816 80.4 146.416C68.9727 152.016 50.8116 163.083 43.1594 167.916L24.284 191.916L14.0812 212.416L9.48985 225.916L5.40869 261.416V293.416L34.4869 373.916L38.5681 385.916L36.0174 395.916L40.6087 463.416L42.6493 486.916L66.1159 549.416L100.806 605.916L133.455 644.416L159.472 666.416L203.855 697.416L243.646 713.416L299.762 726.416L332.922 730.416L388.017 726.416L418.116 719.416L486.985 696.416L531.878 671.416L603.809 603.916L618.603 579.416L633.397 553.916L653.803 497.916L659.924 476.916L667.067 413.416V395.916V376.416L681.351 344.416L685.432 328.916L695.635 301.416L697.165 290.916V283.916L695.635 267.416V238.416L693.594 218.416L673.698 183.916L657.884 162.916L623.704 144.416L600.238 137.416L588.504 135.916L569.119 131.916L565.038 116.916L559.936 99.916L552.284 82.416L546.162 67.416L521.165 38.416L502.8 25.416L486.985 15.416L448.214 8.41602H431.38C428.931 8.41602 421.177 10.416 417.606 11.416L402.812 15.416L388.527 18.416L376.794 22.416L362.51 30.416L352.307 34.416L340.064 23.916L324.249 15.416L303.843 8.41602L290.07 6.41602H277.826L262.012 4.41602L246.197 8.41602L226.812 12.916L208.446 18.416L193.142 27.916L182.429 36.916L168.655 49.416L151.31 75.416L143.658 97.416L139.577 110.916Z" fill="#62503C" stroke="#EBEBEB" stroke-width="3"/>
<path d="M641.559 619.916L582.893 678.416C605.169 700.416 663.802 757.616 720.122 810.416C784.604 839.616 802.085 794.583 802.765 768.416C761.443 724.416 676.861 634.816 669.107 628.416C661.353 622.016 647.511 620.083 641.559 619.916Z" fill="#CEA74E" stroke="#CEA74E" stroke-opacity="0.807843" stroke-width="5"/>
<path d="M674.208 629.416C658.292 614.216 639.688 619.749 632.376 624.416C611.97 642.749 568.302 683.016 556.875 697.416C545.448 711.816 552.113 729.749 556.875 736.916C591.905 773.083 667.168 850.616 687.982 871.416C718.591 890.416 776.845 892.149 804.295 859.416C834.904 822.916 820.109 783.416 804.295 760.416C767.565 723.083 690.125 644.616 674.208 629.416Z" stroke="#1F1A1A" stroke-width="10"/>
<path d="M169.675 136.416L168.145 158.416L139.066 160.416L89.0721 186.916L68.1561 218.916L58.4634 252.416V285.916V309.916L74.788 356.916L83.4605 383.416L79.3793 418.916L89.0721 474.416L112.539 535.916L145.188 583.416L171.205 614.416L218.649 653.416L265.582 673.916L308.945 685.416L366.591 688.416L436.481 668.416L489.026 646.916L517.594 626.916L548.202 592.416L577.281 558.916L599.727 505.916L611.971 472.416L619.113 440.916V406.416V378.916L643.6 312.916V285.916V255.916L638.498 232.416L628.295 207.416L612.991 186.916L580.342 166.916L559.426 159.416H536.469L526.266 122.916L517.084 103.416L496.168 75.916L476.272 64.416L448.724 51.916C446.684 51.2493 437.807 49.516 418.626 47.916C399.444 46.316 390.568 52.2493 388.527 55.416L353.837 74.416L334.452 59.916L291.6 46.916L249.258 51.416L232.933 58.416C225.791 61.416 209.568 69.116 201.814 75.916C194.06 82.716 187.36 95.416 184.979 100.916L169.675 136.416Z" fill="#A98F70" stroke="#A98F70" stroke-width="5"/>
<path d="M250.278 319.916L246.197 326.916L230.892 349.416L208.956 378.416L198.753 387.916L192.631 391.916L180.388 402.416L175.287 407.416L167.634 416.416L161.002 427.416L157.431 433.916C156.411 436.916 154.371 443.116 154.371 443.916C154.371 444.716 153.01 449.249 152.33 451.416L150.289 461.416L149.779 470.916L150.8 481.416L152.84 492.416L156.411 502.416L162.023 514.416L170.695 526.916L184.979 541.916L194.162 548.916L206.405 556.416L215.588 560.916L232.933 566.416L243.646 568.416L260.991 569.916H275.785L295.171 566.416L307.414 562.416L319.658 559.916L350.776 559.416L371.182 559.916L384.446 560.916L392.098 562.916L411.484 567.916L427.808 569.916H444.643L460.457 567.916L471.681 564.916L482.394 561.416L492.086 556.916L500.249 552.916L508.411 547.416L522.185 535.916L532.388 523.416L539.53 511.916L545.142 499.416L547.182 492.416L549.223 482.916L550.243 476.416V465.416L548.202 450.916L544.121 437.916L538.51 425.916L530.347 413.916L523.715 405.916L516.063 398.416L510.452 393.916L500.759 387.416L489.536 377.916L479.843 366.416L471.171 354.916L458.927 338.416L450.765 326.916L446.173 319.416L440.052 310.416L433.42 301.916L425.258 293.916L416.585 285.916L412.504 282.916L406.892 279.416L394.649 272.416L390.568 270.916L381.895 267.916L378.324 266.916L364.55 263.916L358.939 263.416L354.347 262.916H345.165H341.084L334.962 263.916L326.289 264.916L316.597 267.416L311.495 268.916L306.904 270.916L302.313 272.916L296.701 275.416L289.049 279.916L284.458 282.916L280.376 285.916L278.846 286.916L275.785 289.416L273.234 291.916L270.173 294.416L267.623 297.416L265.582 299.416L263.542 301.416L262.011 303.416L259.971 305.916L258.44 307.916L256.91 309.916L255.379 311.916L253.339 314.916L251.808 317.416L250.278 319.916Z" fill="#989797"/>
<path d="M282.42 331.134L279.665 336.196L269.332 352.467L254.522 373.437L247.633 380.307L243.5 383.199L235.234 390.792L231.789 394.408L226.623 400.916L222.145 408.87L219.734 413.571C219.045 415.74 217.668 420.223 217.668 420.802C217.668 421.381 216.749 424.659 216.29 426.225L214.912 433.457L214.568 440.326L215.257 447.919L216.634 455.874L219.045 463.105L222.834 471.782L228.689 480.822L238.333 491.668L244.533 496.73L252.799 502.154L258.999 505.408L270.71 509.385L277.943 510.831L289.653 511.916H299.642L312.73 509.385L320.996 506.493L329.263 504.685L350.273 504.323L364.05 504.685L373.005 505.408L378.172 506.854L391.26 510.47L402.282 511.916H413.648L424.325 510.47L431.903 508.3L439.136 505.769L445.68 502.515L451.191 499.623L456.701 495.646L466.001 487.33L472.89 478.291L477.712 469.975L481.5 460.936L482.878 455.874L484.256 449.004L484.945 444.304V436.349L483.567 425.864L480.811 416.463L477.023 407.786L471.512 399.108L467.034 393.323L461.868 387.9L458.079 384.646L451.535 379.945L443.958 373.076L437.413 364.76L431.558 356.444L423.292 344.512L417.781 336.196L414.681 330.773L410.548 324.265L406.07 318.118L400.56 312.333L394.704 306.548L391.949 304.379L388.16 301.848L379.894 296.786L377.138 295.701L371.283 293.532L368.872 292.809L359.572 290.639L355.784 290.278L352.684 289.916H346.484H343.729L339.596 290.639L333.74 291.362L327.196 293.17L323.752 294.255L320.652 295.701L317.552 297.147L313.763 298.955L308.597 302.209L305.497 304.379L302.742 306.548L301.708 307.271L299.642 309.079L297.92 310.887L295.853 312.695L294.131 314.864L292.753 316.31L291.376 317.756L290.342 319.203L288.965 321.01L287.931 322.457L286.898 323.903L285.865 325.349L284.487 327.519L283.454 329.326L282.42 331.134Z" fill="#CACACA" stroke="#CACACA" stroke-width="10"/>
<path d="M252.319 400.416C263.542 378.083 299.354 330.716 352.817 319.916" stroke="white" stroke-width="10" stroke-linecap="round"/>
<path d="M245.177 457.916C244.156 458.583 239.769 461.816 230.382 469.416L226.811 489.916L241.095 507.416L266.603 514.416L288.539 519.416V526.416L273.235 540.416L252.829 573.416L233.953 607.916L223.75 651.916L254.359 665.916L289.559 676.416L334.962 683.916L384.446 677.916L403.321 674.916L430.869 664.916L449.745 652.916L439.542 618.416L430.869 601.416L404.852 556.916L392.608 533.916L386.997 524.416L365.571 501.916L362 482.916V466.416L368.632 447.416L381.385 482.916L388.527 501.916L400.261 511.416L415.565 504.916L425.258 498.416L432.4 476.916L429.849 460.416L405.872 434.416L392.608 423.416L365.571 407.916L342.104 402.416L324.759 400.416L306.394 412.416C303.673 414.249 297.721 418.516 295.681 420.916C293.13 423.916 281.907 434.416 277.316 436.916C273.643 438.916 254.359 451.749 245.177 457.916Z" fill="#68330D" stroke="#2D0707" stroke-width="3"/>
<ellipse cx="305.262" cy="456.996" rx="12.2435" ry="13" fill="black"/>
<path d="M222.618 480.996C242.514 529.996 270.572 501.496 293.018 522.996C244.453 562.996 225.849 627.996 222.618 655.496C379.743 715.496 438.41 659.996 447.592 655.496C454.938 651.896 438.75 613.996 429.737 595.496C418.344 576.83 394.945 536.696 392.497 525.496C343.013 514.496 367.5 435.496 368.52 438.996C369.54 442.496 379.233 495.496 388.415 506.996C395.762 516.196 410.522 510.83 416.984 506.996C421.915 503.83 432.288 494.196 434.328 480.996C436.879 464.496 419.534 441.996 403.21 431.996C394.537 418.496 334.34 378.996 298.12 416.996C269.144 447.396 246.935 457.663 239.453 458.996M222.618 480.996C212.824 467.396 229.76 460.663 239.453 458.996M222.618 480.996L239.453 458.996" stroke="#1F1A1A" stroke-width="10"/>
<path d="M329.861 556.416L321.698 545.916L298.742 573.416C295.681 580.749 289.559 595.816 289.559 597.416C289.559 599.016 288.879 615.083 288.539 622.916C283.777 628.416 272.826 641.316 267.113 648.916C261.399 656.516 254.529 661.749 251.808 663.416L277.826 670.916L319.147 679.916L348.736 680.916V672.416L343.124 649.916L344.145 633.416L356.388 624.916L373.733 613.916L381.385 608.416L378.324 599.416L371.182 585.916L358.429 569.916L345.675 562.916L334.452 560.916L329.861 556.416Z" fill="white" stroke="white" stroke-width="3"/>
<path d="M342.614 682.966C316.685 681.953 248.14 666.826 246.197 665.508" stroke="white" stroke-width="10"/>
<ellipse cx="350.777" cy="589.508" rx="8.16232" ry="8.5" fill="black"/>
<path d="M342.614 682.966C365.061 682.466 330.371 650.508 346.185 631.508C383.324 614.708 384.786 603.508 380.875 600.008C379.855 599.675 376.59 597.108 371.692 589.508C365.163 563.108 342.784 558.508 332.411 559.508C331.391 557.008 328.228 550.008 323.739 542.008C318.127 532.008 308.945 559.508 290.069 589.508C288.029 624.308 281.397 637.341 278.336 639.508L246.197 665.508" stroke="white" stroke-width="10"/>
<path d="M505.623 637.962L526.595 659.695L591.695 595.383L569.849 572.763M505.623 637.962L569.849 572.763M505.623 637.962C318.625 751.151 185.949 649.642 142.986 584.738C117.209 558.126 69.0611 479.621 82.6927 378.496C29.8264 284.467 47.3029 167.375 166.58 158.504C175.318 39.6373 305.518 21.4526 353.578 73.3458C416.493 25.0008 520.478 44.0727 536.207 158.504C644.561 157.173 678.64 273.822 619.22 378.496C630.405 457.622 590.966 540.977 569.849 572.763" stroke="white" stroke-width="10"/>
<path d="M653.57 647.69C650.625 644.777 645.828 644.756 642.858 647.643C639.887 650.529 639.866 655.23 642.812 658.142L648.191 652.916L653.57 647.69ZM759.125 773.142C762.07 776.055 766.866 776.076 769.837 773.189C772.808 770.303 772.829 765.602 769.883 762.69L764.504 767.916L759.125 773.142ZM648.191 652.916L642.812 658.142L759.125 773.142L764.504 767.916L769.883 762.69L653.57 647.69L648.191 652.916Z" fill="#F3CF7E"/>
<path d="M531.878 672.416L556.365 696.916L632.376 624.416L606.869 598.916M531.878 672.416L606.869 598.916M531.878 672.416C313.536 800.016 158.622 685.583 108.458 612.416C78.359 582.416 22.1411 493.916 38.0576 379.916C-23.6699 273.916 -3.26413 141.916 136.005 131.916C146.208 -2.08403 298.231 -22.584 354.347 35.916C427.808 -18.584 549.223 2.91602 567.588 131.916C694.104 130.416 733.895 261.916 664.515 379.916C677.575 469.116 631.526 563.083 606.869 598.916" stroke="#1F1A1A" stroke-width="10"/>
<rect width="19.1396" height="19.2477" transform="matrix(0.607481 -0.794334 0.805897 0.592055 567.588 583.119)" fill="#62503C"/>
<rect width="19.203" height="19.1845" transform="matrix(-0.730739 -0.682657 -0.697179 0.716897 531.741 646.028)" fill="#62503C"/>
<rect width="19.1185" height="19.2686" transform="matrix(-0.560222 -0.828343 -0.838564 0.544803 526.366 653.017)" fill="#62503C"/>
<rect width="17.1361" height="19.2477" transform="matrix(0.607481 -0.794334 0.805897 0.592055 577.896 592.649)" fill="#62503C"/>
<rect width="95.051" height="15.0718" transform="matrix(0.717443 -0.696617 0.710885 0.703308 515.553 659.469)" fill="#62503C"/>
<ellipse cx="70.0143" cy="88.6027" rx="70.0143" ry="88.6027" transform="matrix(0.929083 -0.369871 0.382847 0.923812 50.3013 220.708)" fill="#989797"/>
<ellipse cx="51.4508" cy="61.4417" rx="51.4508" ry="61.4417" transform="matrix(0.929083 -0.369871 0.382847 0.923812 71.7275 227.976)" fill="#CACACA"/>
<path d="M100.602 263.327C100.858 266.049 103.317 268.05 106.095 267.796C108.872 267.542 110.915 265.13 110.659 262.408L105.631 262.868L100.602 263.327ZM120.793 233.888C122.47 231.703 122.023 228.6 119.795 226.958C117.566 225.317 114.4 225.758 112.723 227.944L116.758 230.916L120.793 233.888ZM105.631 262.868L110.659 262.408C110.28 258.377 111.522 245.973 120.793 233.888L116.758 230.916L112.723 227.944C101.852 242.114 100.007 256.997 100.602 263.327L105.631 262.868Z" fill="white"/>
<ellipse cx="70.1701" cy="94.7267" rx="70.1701" ry="94.7267" transform="matrix(0.985904 -0.167314 0.173969 0.984751 183.057 86.2155)" fill="#989797"/>
<ellipse cx="54.5082" cy="64.2272" rx="54.5082" ry="64.2272" transform="matrix(0.954802 0.297243 -0.30829 0.951292 232.743 85.916)" fill="#CACACA"/>
<path d="M220.68 145.656C219.846 148.267 221.316 151.074 223.964 151.925C226.612 152.777 229.435 151.351 230.27 148.74L225.475 147.198L220.68 145.656ZM250.864 126.222C253.254 124.848 254.046 121.806 252.632 119.428C251.219 117.05 248.136 116.237 245.746 117.611L248.305 121.916L250.864 126.222ZM225.475 147.198L230.27 148.74C231.504 144.88 237.531 133.886 250.864 126.222L248.305 121.916L245.746 117.611C230.17 126.565 222.62 139.587 220.68 145.656L225.475 147.198Z" fill="white"/>
<ellipse cx="70.0143" cy="88.6027" rx="70.0143" ry="88.6027" transform="matrix(-0.929083 -0.369871 -0.382847 0.923812 655.337 220.708)" fill="#989797"/>
<ellipse cx="52.0063" cy="63.2776" rx="52.0063" ry="63.2776" transform="matrix(-0.929083 -0.369871 -0.382847 0.923812 629.012 228.387)" fill="#CACACA"/>
<path d="M521.569 244.318C520.055 246.635 520.704 249.728 523.016 251.225C525.329 252.723 528.431 252.059 529.944 249.742L525.756 247.03L521.569 244.318ZM561.127 229.362C563.884 229.157 565.966 226.761 565.776 224.009C565.586 221.258 563.197 219.193 560.44 219.398L560.784 224.38L561.127 229.362ZM525.756 247.03L529.944 249.742C531.939 246.687 536.055 241.769 541.636 237.506C547.218 233.242 553.913 229.897 561.127 229.362L560.784 224.38L560.44 219.398C550.639 220.125 542.113 224.594 535.582 229.583C529.049 234.573 524.16 240.349 521.569 244.318L525.756 247.03Z" fill="white"/>
<ellipse cx="70.1485" cy="94.757" rx="70.1485" ry="94.757" transform="matrix(-0.978246 -0.207447 -0.215563 0.97649 525.083 90.4229)" fill="#989797"/>
<ellipse cx="55.0225" cy="64.3548" rx="55.0225" ry="64.3548" transform="matrix(0.998861 0.047722 -0.0496734 0.998765 388.289 93.916)" fill="#CACACA"/>
<path d="M402.292 133.656C401.457 136.267 402.928 139.074 405.576 139.925C408.224 140.777 411.047 139.351 411.882 136.74L407.087 135.198L402.292 133.656ZM432.475 114.222C434.865 112.848 435.657 109.806 434.244 107.428C432.831 105.05 429.748 104.236 427.358 105.61L429.917 109.916L432.475 114.222ZM407.087 135.198L411.882 136.74C413.116 132.88 419.143 121.886 432.475 114.222L429.917 109.916L427.358 105.61C411.781 114.565 404.232 127.586 402.292 133.656L407.087 135.198Z" fill="white"/>
</svg>
